<svg enable-background="new 0 0 1521.4 287.8" viewBox="0 0 1521.4 287.8" xmlns="http://www.w3.org/2000/svg"><g fill="#000000"><path d="m438.8 136.3 3.1 1.1c1 .4 2 .6 2.8.9 9.3 3.1 18.3 6.8 27.2 11 7.7 4 14.6 9.5 20 16.3 5.8 7 8.8 15.8 8.8 26.5 0 17.2-6 29.7-18.1 37.5s-26.9 11.7-44.5 11.7c-14.5 0-27.1-2.5-37.9-7.5-10.6-4.9-19.2-13.3-24.2-23.8l24.7-12.4c3 6.3 7.9 11.5 14 14.9 6.4 3.6 14.2 5.4 23.3 5.4 10.3 0 18.5-1.9 24.7-5.6 6.1-3.7 9.1-10.4 9.1-20 0-5.8-1.6-10.6-4.9-14.2-3-3.5-6.8-6.4-11-8.2-4.1-1.9-10.3-4.3-18.6-7.2-8.4-2.9-16.7-6.3-24.7-10.2-7.7-3.8-14.4-9.3-19.7-16.1-6-7.1-8.9-16.2-8.9-27.2 0-15.4 5.8-26.6 17.4-33.5 11.6-6.8 25.5-10.2 41.9-10.2 12.4 0 23.4 2.5 33 7.5s16.9 12.9 21.9 23.5l-24 12.8c-5.9-13.5-16.1-20.3-30.9-20.3-20.2 0-30.3 6.8-30.3 20.3 0 6.9 2.4 12.5 7.2 16.7 5.5 4.5 11.8 8 18.6 10.3zm158.3-23c14.7 0 25.6 4.2 32.8 12.6 7.1 8.5 10.7 22.6 10.7 42.1v70.6h-27.6v-60.3c0-10.2-.5-18.1-1.6-23.8s-3.2-10.1-6.4-13.1c-3.3-3-8.2-4.6-14.7-4.6-7.9 0-14.7 2.1-20.2 6.3-5.1 3.6-9.3 8.4-12.3 13.9v81.7h-27.3v-196.4h27.3v85.4c4.9-4.7 10.7-8.3 17-10.7 7.1-2.5 14.7-3.8 22.3-3.7zm153.2 102h33.3v23.3h-60.8v-99.3h-41v-23.3h68.5zm141.1-102.3c16 0 28.1 5.3 36.3 15.8 8.2 10.4 12.3 26.6 12.3 48.7 0 21.9-4.4 38-13.2 48.4-8.9 10.3-21.5 15.4-37.9 15.4-14.3 0-25.4-4.9-33.3-14.7v61.2h-27.6v-171.8h20.2l6.8 16.1c4.2-5.7 9.6-10.4 15.8-13.8 6.3-3.6 13.4-5.4 20.6-5.3zm-8.8 104.8c10.3 0 17.8-3 22.6-9.1s7.2-16.5 7.2-31.2c0-14.9-2-25.5-6.1-31.7-4.1-6.1-11.2-9.1-21.2-9.1-6.7-.2-13.2 2-18.4 6.1-4.9 3.7-8.7 8.7-11 14.4v43.5c1.8 5 5.1 9.3 9.5 12.3 4.5 3.2 10.3 4.8 17.4 4.8zm177.1-101.8h31.2l-42.2 122.7c-5.7 15.2-12.7 26.9-21 35.1-8.3 8.1-18.5 12.1-30.5 12.1-3.5 0-7.1-.4-10.5-1-3.4-.8-5.7-1.5-7-1.9l8.6-21.9c.1 0 .9.2 2.5.7 1.4.4 2.9.5 4.4.5 6.2 0 11.3-1.8 15.2-5.3s7.8-9.9 11.9-19.3l-44.5-121.7h31.2l25.4 86.6zm183.3 110.6-17.7 17-15.4-15.2c-10.7 8.7-23.7 13-38.9 13-17.5 0-30.5-3.3-38.9-9.8-8.3-6.5-12.4-16.7-12.4-30.3 0-13.8 4.6-23.9 13.7-30.3 9-6.4 23.2-9.6 42.6-9.6h24.9v-6.5c0-6.5-1.9-11.2-5.8-14-4-2.9-10.4-4.4-19.1-4.4-8 0-14.4.9-19.3 2.6-4.7 1.5-8.9 4.3-12.3 7.9l-17.5-17.2c5-5 12-9.1 20.9-12.1 8.8-3 18.8-4.6 30.2-4.6 15.7 0 28 3.1 37 9.3 9 6.1 13.5 14.8 13.5 26.1v63.5zm-96.2-25.4c0 6.2 2 10.6 6.1 13.1 4.1 2.7 11.4 4 22.1 4 5 0 9.9-.9 14.6-2.8 4.2-1.5 8-3.8 11.2-6.8v-25.7h-16.7c-10.7 0-18.7.6-24 1.8s-8.8 3-10.5 5.4c-1.9 2.4-2.8 6-2.8 11zm218-63.9c-7.9 0-14.7 1.8-20.2 5.4-5.6 3.5-9.6 7.6-12.1 12.3v60.3h38.7v23.3h-96.4v-23.3h30v-76.1h-30v-23.2h50.3l4.7 14.9c4.4-5.7 10.1-10.2 16.7-13.2 6.7-3.2 14.4-4.7 23.1-4.7 7.3-.1 14.5 1.5 21 4.7l-8.1 23.5c-.8-.8-2.9-1.7-6.1-2.6-3.7-.9-7.6-1.3-11.6-1.3zm129-95h27.5v196.3h-21.6l-4.7-14c-8.7 11.1-19.9 16.6-33.8 16.6-16.6 0-29.4-5.3-38.4-15.8-9.1-10.5-13.7-26.6-13.7-48.4 0-22 4.2-38.1 12.4-48.4 8.4-10.3 20.8-15.4 37.2-15.4 6.8-.1 13.4 1.3 19.6 4 5.9 2.5 11.1 6.3 15.4 11v-85.9zm-27.1 175.5c6.3.1 12.4-2 17.2-6 4.6-3.8 8.1-8.7 10-14.4v-39.1c-2.6-5.9-6.5-11.1-11.4-15.2-5.1-4.2-11.6-6.5-18.2-6.3-10.4 0-17.6 3-21.6 9.1-4 6.2-6 16.6-6 31.2 0 14.1 2.3 24.5 7 31 4.8 6.5 12.5 9.7 23 9.7z" fill="#000000"/><path d="m240.8 74.7-23.1-74.7-19.7 74.7h-21.1l-3.1-4.7h-148.8l-25 26.3h187.1v21.7h10.9v98.6h-7.1l-16.1 25.6h96.5l-16.1-25.6h-13.8v-98.6h10.8v-21.7h10.8v21.7h32.5v-43.3zm-201.2 12h-17.6l7.2-7.2h17.6zm30.3 0h-17.5l7.2-7.2h17.6zm30.4 0h-17.6l7.2-7.2h17.6zm30.4 0h-17.6l7.2-7.2h17.6zm13.1 0 7.2-7.2h17.6l4.8 7.2zm74.5-57.5 5.5 17.8-13.5 12.8zm-20.3 78v-21.7h32.6v21.7zm32.5 12.5-21.7 18.4v-18.4zm-1.2 97h-20.4v-3.5l21.7-20.4zm1.2-38.9-21.7 20.4v-16.5l21.7-20.4zm0-30-21.7 20.4v-16.5l21.7-20.4zm-21.6-73 18.2-17.2 5.3 17.2z" fill="#000000"/><path d="m163.9 179.9h-141.2v62.2h141.2zm-100 41.8h-27.4v-29h27.4zm43.3 0h-27.4v-29h27.4zm43.3 0h-27.4v-29h27.4z" fill="#000000"/><path d="m123.1 138.6h40.6v10h-40.6z" fill="#000000"/><path d="m123.1 120.7h29.6 11v9.7h-40.6z" fill="#000000"/><path d="m152.7 167.2h-29.6v-10.1h40.6v10.1z" fill="#000000"/><path d="m22.7 157.1h40.6v10.2h-40.6z" fill="#000000"/><path d="m72.9 157.1h40.6v10.2h-40.6z" fill="#000000"/><path d="m72.9 138.6h40.6v10.2h-40.6z" fill="#000000"/><path d="m736.1 89c-5.8.1-11.5-2.1-15.6-6.3-4.2-4-6.4-9.5-6.3-15.2-.1-5.8 2.2-11.4 6.3-15.4 4.2-4.1 9.8-6.3 15.6-6.1 11.6-.3 21.2 8.8 21.6 20.4v1.1c.2 11.7-9.1 21.4-20.9 21.6-.3-.1-.5-.1-.7-.1z" fill="#000000"/></g></svg>